<svg width="100" height="100" viewBox="0 0 100 100" fill="none" xmlns="http://www.w3.org/2000/svg">
<path fill-rule="evenodd" clip-rule="evenodd" d="M50 49.5542C50 32.0606 60.1912 16.8753 75.1303 9.27597C68.0647 5.30412 59.8578 3.0303 51.1028 3.0303C24.6055 3.0303 3.125 23.8598 3.125 49.5542C3.125 75.2488 24.6055 96.0785 51.1028 96.0785C59.8578 96.0785 68.0647 93.8045 75.1303 89.8327C60.1912 82.2333 50 67.0479 50 49.5542ZM7.79687 55.2482C8.08334 55.5261 8.47291 55.6648 8.96562 55.6648H13.5719C13.8927 55.6648 14.1505 55.5761 14.3453 55.3982C14.5401 55.2094 14.6375 54.8927 14.6375 54.4482C14.6375 54.2261 14.6031 54.0148 14.5344 53.8148C14.4656 53.6039 14.3912 53.4373 14.3109 53.3149H10.375V46.7315C10.375 46.4427 10.3406 46.2094 10.2719 46.0315C10.2031 45.8539 10.1 45.7148 9.9625 45.6148C9.825 45.5148 9.65312 45.4482 9.44687 45.4149C9.25209 45.3706 9.02291 45.3482 8.75937 45.3482C8.50728 45.3482 8.24375 45.3706 7.96875 45.4149C7.69375 45.4482 7.49322 45.4761 7.36719 45.4982V54.1149C7.36719 54.5927 7.51041 54.9706 7.79687 55.2482ZM24.9144 53.5315C25.1321 53.0315 25.241 52.4815 25.241 51.8815V46.7482C25.241 46.4594 25.2066 46.2261 25.1378 46.0482C25.0691 45.8706 24.966 45.7315 24.8285 45.6315C24.691 45.5315 24.5191 45.4648 24.3128 45.4315C24.1181 45.3873 23.8889 45.3648 23.6253 45.3648C23.3733 45.3648 23.1097 45.3873 22.8347 45.4315C22.5597 45.4648 22.3592 45.4927 22.2332 45.5148V51.8315C22.2332 52.3649 22.0842 52.7815 21.7863 53.0815C21.4884 53.3815 21.0931 53.5315 20.6003 53.5315C20.1191 53.5315 19.7238 53.3815 19.4144 53.0815C19.1165 52.7815 18.9675 52.3649 18.9675 51.8315V46.7482C18.9675 46.4594 18.9332 46.2261 18.8644 46.0482C18.7957 45.8706 18.6925 45.7315 18.555 45.6315C18.4175 45.5315 18.2457 45.4648 18.0394 45.4315C17.8446 45.3873 17.6155 45.3648 17.3519 45.3648C17.0998 45.3648 16.8363 45.3873 16.5613 45.4315C16.2863 45.4648 16.0858 45.4927 15.9597 45.5148V51.8815C15.9597 52.4815 16.0628 53.0315 16.2691 53.5315C16.4868 54.0206 16.7962 54.4427 17.1972 54.7982C17.5983 55.1427 18.0852 55.4094 18.6582 55.5982C19.2311 55.7873 19.8785 55.8815 20.6003 55.8815C21.3222 55.8815 21.9696 55.7873 22.5425 55.5982C23.1155 55.4094 23.6024 55.1427 24.0035 54.7982C24.4045 54.4427 24.7082 54.0206 24.9144 53.5315ZM36.1562 55.6148C36.4656 55.5373 36.7003 55.4206 36.8609 55.2648V46.6982C36.8609 46.1539 36.7291 45.7982 36.4656 45.6315C36.2019 45.4539 35.8181 45.3648 35.3141 45.3648C35.0619 45.3648 34.8041 45.3815 34.5406 45.4149C34.2884 45.4482 34.0994 45.4815 33.9734 45.5148V48.2148C33.9734 48.8148 33.9791 49.4148 33.9906 50.0148C34.0019 50.6148 34.0306 51.2148 34.0766 51.8148L33.9906 51.8315C33.83 51.4315 33.6812 51.0815 33.5437 50.7815C33.4062 50.4706 33.2516 50.1427 33.0797 49.7982L31.3609 46.4315C31.1316 45.9761 30.8222 45.6873 30.4327 45.5648C30.0546 45.4315 29.6535 45.3648 29.2296 45.3648C28.8514 45.3648 28.4962 45.4206 28.1639 45.5315C27.8316 45.6427 27.5853 45.8094 27.4249 46.0315V54.3648C27.4249 54.6427 27.4592 54.8706 27.528 55.0482C27.5967 55.2148 27.6941 55.3482 27.8202 55.4482C27.9462 55.5482 28.1066 55.6148 28.3014 55.6482C28.4962 55.6815 28.7197 55.6982 28.9717 55.6982C29.2238 55.6982 29.4759 55.6815 29.728 55.6482C29.9915 55.6148 30.1863 55.5815 30.3124 55.5482V52.9648C30.3124 52.3648 30.3066 51.7539 30.2952 51.1315C30.2952 50.5094 30.2722 49.8982 30.2264 49.2982L30.3296 49.2815C30.49 49.6815 30.6389 50.0373 30.7764 50.3482C30.9139 50.6482 31.0686 50.9706 31.2405 51.3149L32.9422 54.6815C33.1828 55.1482 33.4922 55.4427 33.8703 55.5648C34.2484 55.6873 34.6494 55.7482 35.0734 55.7482C35.4972 55.7482 35.8581 55.7039 36.1562 55.6148ZM42.1841 45.4982C41.7944 45.5982 41.5022 45.7039 41.3075 45.8148C41.2272 46.0148 41.1125 46.3039 40.9637 46.6815C40.8262 47.0594 40.6716 47.4927 40.4997 47.9815C40.3278 48.4594 40.1444 48.9706 39.9497 49.5148C39.7547 50.0594 39.5716 50.5927 39.3997 51.1149L38.9184 52.5482C38.7809 52.9927 38.6719 53.3648 38.5919 53.6648C38.5344 53.8761 38.4828 54.0594 38.4372 54.2148C38.3912 54.3706 38.3684 54.5261 38.3684 54.6815C38.3684 55.0261 38.5059 55.2982 38.7809 55.4982C39.0672 55.6873 39.5028 55.7815 40.0872 55.7815C40.3391 55.7815 40.5512 55.7594 40.7231 55.7149C40.9062 55.6815 41.0781 55.6373 41.2387 55.5815C41.3303 55.2482 41.4219 54.9039 41.5137 54.5482C41.6053 54.1927 41.6969 53.8482 41.7887 53.5149H44.8997L45.2091 54.6648C45.2662 54.8539 45.3294 55.0206 45.3981 55.1648C45.4781 55.3094 45.5756 55.4261 45.6903 55.5149C45.8162 55.6039 45.9709 55.6706 46.1544 55.7149C46.3491 55.7594 46.5841 55.7815 46.8591 55.7815C47.2372 55.7815 47.5637 55.7315 47.8387 55.6315C48.1137 55.5427 48.32 55.4206 48.4575 55.2648C48.2856 54.6539 48.085 53.9539 47.8559 53.1648C47.6266 52.3648 47.3919 51.5594 47.1512 50.7482C46.9106 49.9261 46.67 49.1315 46.4294 48.3648C46.1887 47.5982 45.9653 46.9261 45.7591 46.3482C45.6328 46.0039 45.3466 45.7539 44.8997 45.5982C44.4641 45.4315 43.96 45.3482 43.3872 45.3482C42.9859 45.3482 42.585 45.3982 42.1841 45.4982ZM42.82 49.5315C43.0262 48.9539 43.2094 48.4315 43.37 47.9648H43.4731C43.6106 48.4206 43.7594 48.9373 43.92 49.5148C44.0919 50.0815 44.2578 50.6649 44.4184 51.2649H42.2872C42.4475 50.6761 42.625 50.0982 42.82 49.5315Z" fill="white"/>
<path d="M56.6022 55.6648C56.1094 55.6648 55.7197 55.5261 55.4334 55.2482C55.1469 54.9706 55.0038 54.5927 55.0038 54.1148V45.4982C55.1297 45.4761 55.3303 45.4482 55.6053 45.4148C55.8803 45.3706 56.1438 45.3482 56.3959 45.3482C56.6594 45.3482 56.8884 45.3706 57.0834 45.4148C57.2897 45.4482 57.4616 45.5148 57.5991 45.6148C57.7366 45.7148 57.8397 45.8539 57.9084 46.0315C57.9772 46.2094 58.0116 46.4427 58.0116 46.7315V53.3148H61.9475C62.0275 53.4373 62.1022 53.6039 62.1709 53.8148C62.2397 54.0148 62.2741 54.2261 62.2741 54.4482C62.2741 54.8927 62.1766 55.2094 61.9819 55.3982C61.7869 55.5761 61.5291 55.6648 61.2084 55.6648H56.6022ZM66.2006 45.8148C66.3953 45.7039 66.6875 45.5982 67.0772 45.4982C67.4781 45.3982 67.8794 45.3482 68.2803 45.3482C68.8531 45.3482 69.3575 45.4315 69.7928 45.5982C70.2397 45.7539 70.5263 46.0039 70.6522 46.3482C70.8584 46.9261 71.0819 47.5982 71.3225 48.3648C71.5631 49.1315 71.8037 49.9261 72.0444 50.7482C72.285 51.5594 72.52 52.3648 72.7491 53.1648C72.9781 53.9539 73.1788 54.6539 73.3506 55.2648C73.2131 55.4206 73.0069 55.5427 72.7319 55.6315C72.4569 55.7315 72.1303 55.7815 71.7522 55.7815C71.4772 55.7815 71.2422 55.7594 71.0475 55.7148C70.8641 55.6706 70.7094 55.6039 70.5834 55.5148C70.4688 55.4261 70.3716 55.3094 70.2913 55.1648C70.2225 55.0206 70.1594 54.8539 70.1022 54.6648L69.7928 53.5148H66.6819C66.5903 53.8482 66.4984 54.1927 66.4069 54.5482C66.3153 54.9039 66.2234 55.2482 66.1319 55.5815C65.9716 55.6373 65.7997 55.6815 65.6163 55.7148C65.4444 55.7594 65.2325 55.7815 64.9803 55.7815C64.3959 55.7815 63.9606 55.6873 63.6741 55.4982C63.3991 55.2982 63.2616 55.0261 63.2616 54.6815C63.2616 54.5261 63.2844 54.3706 63.3303 54.2148C63.3763 54.0594 63.4278 53.8761 63.485 53.6648C63.5653 53.3648 63.6741 52.9927 63.8116 52.5482C63.9606 52.1039 64.1209 51.6261 64.2928 51.1148C64.4647 50.5927 64.6481 50.0594 64.8428 49.5148C65.0375 48.9706 65.2209 48.4594 65.3928 47.9815C65.5647 47.4927 65.7194 47.0594 65.8569 46.6815C66.0059 46.3039 66.1203 46.0148 66.2006 45.8148ZM68.2631 47.9648C68.1028 48.4315 67.9194 48.9539 67.7131 49.5315C67.5184 50.0982 67.3406 50.6761 67.1803 51.2648H69.3116C69.1513 50.6648 68.985 50.0815 68.8131 49.5148C68.6528 48.9373 68.5037 48.4206 68.3662 47.9648H68.2631ZM77.6809 53.5315C77.8416 53.5761 78.0478 53.6094 78.2997 53.6315C78.5519 53.6427 78.7925 53.6482 79.0216 53.6482C79.48 53.6482 79.8581 53.5594 80.1559 53.3815C80.4653 53.1927 80.62 52.9039 80.62 52.5148C80.62 52.1482 80.4941 51.8873 80.2419 51.7315C79.99 51.5761 79.6059 51.4982 79.0903 51.4982H77.6809V53.5315ZM77.6809 49.4648H78.9356C79.4284 49.4648 79.7838 49.3761 80.0013 49.1982C80.2306 49.0206 80.345 48.7594 80.345 48.4148C80.345 48.1148 80.2134 47.8761 79.9497 47.6982C79.6978 47.5206 79.3138 47.4315 78.7981 47.4315C78.6263 47.4315 78.4259 47.4373 78.1966 47.4482C77.9791 47.4594 77.8072 47.4761 77.6809 47.4982V49.4648ZM78.7981 55.8815C78.6034 55.8815 78.3744 55.8761 78.1106 55.8648C77.8472 55.8539 77.5722 55.8315 77.2856 55.7982C77.0106 55.7648 76.7356 55.7206 76.4606 55.6648C76.1856 55.6206 75.9338 55.5539 75.7044 55.4648C75.0744 55.2315 74.7591 54.8261 74.7591 54.2482V46.4648C74.7591 46.2315 74.8222 46.0539 74.9481 45.9315C75.0856 45.7982 75.2691 45.6927 75.4981 45.6148C75.8878 45.4815 76.3747 45.3873 76.9591 45.3315C77.5434 45.2648 78.145 45.2315 78.7637 45.2315C80.2306 45.2315 81.3591 45.4706 82.1497 45.9482C82.9403 46.4261 83.3356 47.1648 83.3356 48.1648C83.3356 48.6648 83.1869 49.0982 82.8888 49.4648C82.5909 49.8206 82.19 50.0815 81.6856 50.2482C82.2588 50.4039 82.7341 50.6873 83.1122 51.0982C83.5019 51.5094 83.6966 52.0261 83.6966 52.6482C83.6966 53.7482 83.2728 54.5648 82.4247 55.0982C81.5884 55.6206 80.3794 55.8815 78.7981 55.8815ZM88.3569 51.5982C87.8528 51.4315 87.3944 51.2648 86.9819 51.0982C86.5694 50.9206 86.2141 50.7094 85.9163 50.4648C85.6184 50.2206 85.3834 49.9315 85.2116 49.5982C85.0513 49.2539 84.9709 48.8373 84.9709 48.3482C84.9709 47.4039 85.3434 46.6482 86.0881 46.0815C86.8444 45.5148 87.8984 45.2315 89.2506 45.2315C89.7434 45.2315 90.2016 45.2648 90.6256 45.3315C91.0497 45.3982 91.4106 45.5039 91.7084 45.6482C92.0178 45.7815 92.2584 45.9594 92.4303 46.1815C92.6022 46.3927 92.6881 46.6427 92.6881 46.9315C92.6881 47.2206 92.6194 47.4706 92.4819 47.6815C92.3444 47.8815 92.1781 48.0539 91.9834 48.1982C91.7313 48.0427 91.3934 47.9094 90.9694 47.7982C90.5453 47.6761 90.0812 47.6148 89.5772 47.6148C89.0616 47.6148 88.6834 47.6873 88.4428 47.8315C88.2022 47.9648 88.0819 48.1373 88.0819 48.3482C88.0819 48.5148 88.1563 48.6539 88.3053 48.7648C88.4544 48.8648 88.6778 48.9594 88.9756 49.0482L89.8866 49.3315C90.9638 49.6648 91.7888 50.0927 92.3616 50.6148C92.9459 51.1261 93.2381 51.8261 93.2381 52.7148C93.2381 53.6594 92.8544 54.4261 92.0866 55.0148C91.3187 55.5927 90.1903 55.8815 88.7006 55.8815C88.1734 55.8815 87.6809 55.8373 87.2225 55.7482C86.7756 55.6706 86.3803 55.5539 86.0366 55.3982C85.7044 55.2315 85.4406 55.0315 85.2459 54.7982C85.0625 54.5539 84.9709 54.2761 84.9709 53.9648C84.9709 53.6427 85.0684 53.3706 85.2631 53.1482C85.4578 52.9148 85.67 52.7373 85.8991 52.6148C86.22 52.8594 86.6094 53.0706 87.0678 53.2482C87.5375 53.4261 88.0475 53.5148 88.5975 53.5148C89.1591 53.5148 89.5544 53.4315 89.7834 53.2648C90.0125 53.0982 90.1272 52.9039 90.1272 52.6815C90.1272 52.4594 90.0356 52.2927 89.8522 52.1815C89.6688 52.0594 89.4109 51.9427 89.0787 51.8315L88.3569 51.5982Z" fill="white"/>
</svg>
